<?xml version="1.0" standalone="no"?>
<!DOCTYPE svg PUBLIC "-//W3C//DTD SVG 20010904//EN"
 "http://www.w3.org/TR/2001/REC-SVG-20010904/DTD/svg10.dtd">
<svg version="1.0" xmlns="http://www.w3.org/2000/svg"
 width="500.000000pt" height="500.000000pt" viewBox="0 0 500.000000 500.000000"
 preserveAspectRatio="xMidYMid meet">

<g transform="translate(0.000000,500.000000) scale(0.100000,-0.100000)"
fill="#000000" stroke="none">
<path d="M0 2500 l0 -2500 2500 0 2500 0 0 2500 0 2500 -2500 0 -2500 0 0
-2500z m2870 1511 c308 -66 562 -209 782 -439 187 -197 321 -456 373 -724 9
-46 19 -143 22 -215 l6 -133 398 0 c259 0 399 -4 399 -10 0 -6 -140 -10 -399
-10 l-399 0 -12 -97 c-51 -409 -258 -755 -608 -1018 -197 -148 -391 -238 -615
-287 -147 -32 -447 -32 -589 -1 -302 68 -527 191 -744 407 -256 256 -404 570
-430 910 l-7 86 -448 0 c-293 0 -449 3 -449 10 0 7 156 10 448 10 l449 0 6
123 c23 432 239 820 614 1101 225 170 462 270 718 305 111 15 375 6 485 -18z"/>
<path d="M2441 4009 c-52 -5 -98 -10 -103 -11 -5 -2 71 -3 169 -4 144 0 199
-4 291 -22 198 -40 377 -114 550 -228 115 -76 319 -280 393 -394 160 -243 243
-496 251 -767 3 -74 5 -83 22 -83 18 0 19 6 13 119 -12 220 -61 411 -155 596
-267 533 -838 850 -1431 794z"/>
<path d="M2288 3983 c6 -2 18 -2 25 0 6 3 1 5 -13 5 -14 0 -19 -2 -12 -5z"/>
<path d="M2285 3955 c-182 -32 -371 -103 -522 -196 -117 -73 -298 -251 -382
-378 -159 -240 -237 -475 -248 -748 l-6 -133 317 0 316 0 0 34 0 33 72 5 c85
7 108 26 108 90 0 53 -35 88 -88 88 -49 0 -82 -32 -89 -89 l-6 -41 -75 0 -75
0 6 60 c11 128 79 190 218 198 94 5 162 -15 207 -61 39 -41 52 -75 52 -142 0
-67 -13 -101 -53 -142 l-31 -33 165 0 164 1 255 330 c140 182 257 335 258 340
2 5 -174 9 -432 9 l-436 0 0 85 0 85 560 0 560 0 0 -77 -1 -78 -264 -343
c-146 -188 -265 -345 -265 -347 0 -3 38 -5 84 -5 l83 0 7 78 c12 147 48 225
123 269 37 22 62 28 128 31 190 10 285 -69 285 -235 l0 -53 -74 0 -73 0 -6 49
c-10 80 -40 111 -112 111 -72 0 -115 -72 -115 -194 l0 -56 535 0 535 0 0 74
c0 94 -31 276 -66 386 -133 423 -470 776 -884 924 -171 62 -261 78 -465 82
-134 2 -214 -1 -270 -11z"/>
<path d="M1192 3102 c-63 -142 -105 -321 -118 -500 -6 -96 -6 -102 12 -102 17
0 19 10 21 112 4 171 43 363 103 504 11 26 19 49 17 51 -2 2 -18 -27 -35 -65z"/>
<path d="M1075 2418 c20 -200 70 -379 152 -543 267 -530 833 -848 1415 -795
68 6 124 12 125 13 1 1 -80 2 -180 2 -135 0 -205 5 -272 18 -499 101 -899 423
-1096 884 -49 115 -96 295 -105 403 -6 70 -9 80 -26 80 -17 0 -18 -6 -13 -62z"/>
<path d="M1136 2418 c25 -247 129 -513 276 -713 80 -109 242 -263 354 -338
160 -106 320 -176 504 -219 122 -28 392 -36 526 -15 307 49 552 171 754 376
241 243 388 557 416 889 l7 82 -537 0 -536 0 0 -46 c0 -113 45 -184 116 -184
68 0 114 45 114 111 0 17 9 19 76 19 l77 0 -6 -58 c-13 -145 -104 -209 -281
-200 -162 8 -232 88 -252 287 l-7 71 -96 0 -96 -1 -201 -262 -201 -262 503 -3
504 -2 0 -90 0 -90 -625 0 -625 0 0 85 0 85 205 265 c113 146 205 267 205 270
0 3 -58 5 -129 5 l-128 0 24 -47 c20 -38 24 -59 21 -103 -10 -132 -98 -209
-243 -210 -149 0 -238 71 -247 200 l-3 45 73 3 c76 3 74 4 86 -51 10 -43 40
-67 85 -67 74 0 120 71 91 141 -17 40 -37 49 -114 49 -59 0 -66 2 -66 20 0 20
-7 20 -315 20 l-316 0 7 -62z m568 -716 c3 -5 -8 -7 -23 -4 -52 7 -89 -72 -47
-100 36 -24 88 4 90 49 1 35 16 34 16 -1 0 -26 -34 -66 -55 -66 -26 0 -17 -49
14 -81 16 -16 25 -29 20 -29 -18 0 -58 48 -65 77 -4 15 -18 38 -31 50 -28 27
-29 52 -2 87 20 25 71 37 83 18z m1806 -60 c0 -3 -10 -16 -21 -29 -21 -21 -21
-23 -4 -29 12 -5 23 -1 33 12 8 10 12 13 10 5 -7 -24 -36 -37 -55 -25 -33 20
-39 42 -18 61 16 16 17 16 6 1 -19 -26 -3 -43 20 -22 15 13 16 20 8 31 -9 11
-8 12 5 7 9 -3 16 -9 16 -12z m-96 -60 c-3 -9 4 -27 15 -38 11 -12 17 -24 14
-27 -3 -3 -16 7 -30 24 -20 24 -23 32 -13 44 16 19 19 19 14 -3z m-1674 -22
c-36 -50 1 -72 39 -24 12 15 21 21 21 14 0 -7 -10 -24 -23 -39 l-22 -27 -23
21 c-12 11 -22 24 -22 28 0 12 34 56 43 57 5 0 -1 -13 -13 -30z m1646 -37 c19
-26 20 -29 4 -45 -24 -26 -46 -22 -70 12 -26 36 -16 40 12 5 37 -48 68 -17 32
33 -22 32 -2 27 22 -5z m-1532 -9 c9 -8 16 -18 16 -21 0 -10 -35 -63 -42 -63
-15 0 -17 18 -3 24 22 8 18 26 -5 26 -12 0 -20 -7 -20 -17 0 -15 -2 -16 -9 -3
-14 21 -2 32 31 28 37 -6 45 6 16 26 -12 9 -17 16 -11 16 6 0 19 -7 27 -16z
m86 2 c0 -14 -68 -115 -73 -110 -3 4 7 26 23 50 17 23 30 47 30 53 0 6 5 11
10 11 6 0 10 -2 10 -4z m1333 -21 c4 3 5 2 2 -1 -7 -11 25 -65 35 -59 6 4 10
1 10 -4 0 -25 -27 -8 -52 33 -28 44 -38 75 -14 44 7 -10 16 -16 19 -13z m-24
-67 c12 -21 19 -38 14 -38 -12 0 -53 67 -46 74 4 3 7 5 8 4 1 -2 12 -20 24
-40z m-1242 18 c-3 -7 0 -19 6 -25 9 -9 8 -11 -4 -6 -21 8 -46 -44 -27 -56 10
-7 9 -9 -4 -9 -10 0 -18 6 -18 14 0 16 25 78 36 89 12 11 17 8 11 -7z m-69
-31 c-11 -20 -23 -34 -25 -31 -6 6 29 66 39 66 4 0 -2 -16 -14 -35z m1267 -16
c9 -17 14 -33 11 -36 -2 -3 -12 9 -21 26 -15 31 -38 40 -50 21 -3 -5 1 -23 10
-40 8 -16 12 -30 7 -30 -5 0 -15 15 -24 33 -15 31 -15 34 1 45 28 19 50 13 66
-19z m-1163 -24 c-5 -41 2 -43 37 -13 14 12 5 0 -21 -25 -46 -47 -68 -58 -68
-35 0 6 3 8 7 5 14 -15 33 18 33 59 0 24 4 44 8 44 4 0 6 -16 4 -35z m183 11
c13 -9 16 -18 10 -32 -5 -10 -9 -32 -9 -48 -1 -16 -8 -31 -16 -34 -12 -4 -13
-3 -2 10 14 17 7 44 -13 52 -14 5 -39 -47 -28 -58 4 -3 1 -6 -6 -6 -8 0 -11 7
-8 18 3 9 11 38 18 65 14 50 23 56 54 33z m865 -1 c-10 -12 -10 -21 -1 -42 6
-14 9 -28 7 -31 -3 -3 -13 12 -22 33 -13 31 -13 39 -2 46 21 14 31 10 18 -6z
m-199 -14 c-9 -6 -11 -16 -5 -32 4 -13 9 -29 10 -35 1 -6 5 -21 9 -33 3 -11 3
-21 -2 -21 -10 0 -42 117 -35 125 3 3 12 5 21 5 13 0 13 -2 2 -9z m157 -48
c10 -30 9 -32 -18 -38 -37 -8 -45 -3 -58 35 -14 40 0 39 15 -1 8 -21 17 -30
30 -27 19 4 21 17 8 58 -11 37 10 12 23 -27z m-392 -42 c3 -11 9 -10 27 5 22
19 22 19 4 -2 -17 -20 -16 -22 5 -50 l22 -29 -27 24 -27 24 -1 -24 c0 -22 -1
-23 -9 -4 -5 11 -8 43 -8 70 0 28 3 39 5 25 2 -14 6 -31 9 -39z m281 43 c-3
-3 -12 -4 -19 -1 -8 3 -5 6 6 6 11 1 17 -2 13 -5z m-667 -19 c-10 -12 -9 -15
6 -16 17 -1 17 -2 2 -6 -21 -5 -23 -14 -5 -32 10 -11 9 -13 -3 -9 -26 8 -26
78 1 78 8 0 8 -4 -1 -15z m60 -21 c0 -8 -8 -14 -17 -14 -15 0 -15 2 -4 9 13 8
13 12 0 28 -13 16 -13 17 4 4 9 -7 17 -20 17 -27z m64 17 c4 -5 -3 -7 -14 -4
-27 7 -26 -11 2 -29 25 -17 19 -49 -9 -47 -17 1 -17 2 0 6 23 6 22 18 -5 35
-14 9 -19 20 -15 31 7 18 32 23 41 8z m57 -47 c-2 -28 1 -34 18 -34 28 0 37
37 14 62 -18 21 -18 21 5 9 42 -22 18 -90 -28 -78 -16 4 -20 0 -20 -19 0 -13
-3 -24 -8 -24 -8 0 -5 65 4 109 7 34 19 16 15 -25z m294 24 c-8 -33 8 -52 39
-46 14 3 23 1 20 -3 -8 -13 -48 -11 -62 3 -13 13 -16 50 -5 61 11 12 14 8 8
-15z m59 7 c7 -18 -14 -29 -41 -22 -14 4 -12 5 6 6 16 1 21 5 17 16 -3 8 -1
15 3 15 5 0 12 -7 15 -15z m-192 -20 c9 -21 9 -29 -3 -40 -12 -13 -14 -10 -14
18 0 25 -5 33 -21 35 -26 4 -38 -22 -24 -49 7 -13 7 -19 1 -19 -17 0 -25 49
-11 65 20 24 59 19 72 -10z"/>
<path d="M2197 1384 c-4 -4 -7 -16 -7 -26 0 -20 25 -25 36 -7 8 13 -19 43 -29
33z"/>
<path d="M3990 2423 c0 -115 -51 -336 -105 -458 -32 -73 -32 -84 1 -22 60 115
116 311 132 460 8 71 7 77 -10 77 -15 0 -18 -9 -18 -57z"/>
<path d="M2788 1103 c6 -2 18 -2 25 0 6 3 1 5 -13 5 -14 0 -19 -2 -12 -5z"/>
</g>
</svg>
