<?xml version="1.0" standalone="no"?>
<!DOCTYPE svg PUBLIC "-//W3C//DTD SVG 20010904//EN"
 "http://www.w3.org/TR/2001/REC-SVG-20010904/DTD/svg10.dtd">
<svg version="1.0" xmlns="http://www.w3.org/2000/svg"
 width="632.000000pt" height="351.000000pt" viewBox="0 0 632.000000 351.000000"
 preserveAspectRatio="xMidYMid meet">
<metadata>
Created by potrace 1.16, written by Peter Selinger 2001-2019
</metadata>
<g transform="translate(0.000000,351.000000) scale(0.100000,-0.100000)"
fill="#000000" stroke="none">
<path d="M0 3421 l0 -68 308 -7 c169 -3 834 -8 1477 -11 644 -3 1180 -8 1193
-11 53 -11 54 -10 -658 -382 -1005 -524 -1314 -685 -1390 -727 l-75 -41 -3
-72 c-2 -51 1 -72 9 -72 7 0 139 66 293 147 155 80 398 207 541 281 143 74
400 207 570 296 171 90 478 250 683 357 l372 194 0 77 0 76 -82 6 c-103 8
-1993 26 -2710 26 l-528 0 0 -69z"/>
<path d="M3630 3145 l0 -235 918 0 c530 0 923 -4 931 -9 12 -8 6 -20 -30 -67
-24 -32 -64 -80 -89 -108 -25 -28 -66 -76 -90 -106 -25 -30 -72 -87 -105 -126
-33 -39 -105 -127 -160 -194 -94 -116 -221 -270 -444 -541 -177 -213 -379
-459 -540 -659 -38 -47 -165 -202 -282 -345 -117 -143 -223 -275 -236 -294
-23 -34 -23 -39 -21 -245 l3 -211 1409 -3 1409 -2 -7 46 c-3 26 -6 129 -6 230
l0 184 -997 0 c-549 0 -1008 3 -1020 6 -18 5 -20 10 -12 31 5 13 22 41 39 61
16 20 57 73 90 117 33 44 90 116 127 161 38 44 105 125 150 180 46 54 125 149
178 209 101 117 262 311 490 590 77 94 199 243 270 330 72 87 165 201 209 254
43 53 104 128 136 166 105 126 265 326 282 353 16 24 18 55 18 245 l0 217
-1310 0 -1310 0 0 -235z"/>
<path d="M0 3127 l0 -74 488 -6 c268 -4 780 -7 1139 -7 l652 0 98 48 c54 27
118 59 143 72 l45 24 -30 7 c-16 4 -594 7 -1282 8 l-1253 1 0 -73z"/>
<path d="M3040 2986 c-151 -78 -410 -213 -575 -298 -728 -376 -1457 -755
-1535 -798 l-85 -47 -3 -70 c-2 -53 1 -72 11 -76 8 -3 151 66 318 152 167 87
507 262 754 391 881 456 1370 712 1388 728 13 11 17 30 17 76 0 34 -4 66 -8
73 -6 9 -86 -28 -282 -131z"/>
<path d="M0 2838 l0 -66 83 -7 c45 -3 435 -7 867 -8 l785 -2 110 56 c61 31
121 60 134 64 12 4 19 11 15 15 -5 5 -456 10 -1002 12 l-992 3 0 -67z"/>
<path d="M2935 2601 c-603 -312 -1137 -590 -1175 -611 -19 -11 -224 -117 -454
-236 -230 -118 -430 -222 -443 -231 -21 -14 -23 -22 -23 -97 l1 -81 204 -109
c200 -106 285 -152 905 -488 168 -91 342 -185 385 -208 310 -164 623 -338 644
-358 l26 -23 -245 5 c-135 4 -811 9 -1502 12 l-1258 6 0 -70 0 -70 163 -6
c287 -11 3110 -15 3129 -5 14 8 18 22 18 69 0 86 25 67 -365 275 -132 70 -292
156 -355 190 -268 147 -1004 543 -1115 600 -66 35 -194 103 -285 153 -135 74
-165 94 -165 112 0 18 33 39 200 124 110 56 306 158 435 226 291 152 967 503
1195 620 292 149 429 222 447 238 20 17 31 84 21 128 l-8 32 -380 -197z"/>
<path d="M0 2540 l0 -70 589 0 588 0 116 55 c63 30 121 55 127 55 6 0 10 6 8
13 -4 9 -158 13 -716 15 l-712 2 0 -70z"/>
<path d="M1655 1662 c-65 -35 -70 -60 -16 -85 22 -10 92 -47 158 -84 65 -36
192 -105 283 -153 183 -97 359 -192 525 -283 61 -34 130 -72 155 -86 25 -13
159 -82 298 -152 200 -101 254 -125 259 -113 3 8 3 37 1 65 -7 66 -29 88 -158
153 -58 29 -127 67 -155 84 -27 16 -237 131 -465 254 -536 291 -663 360 -730
397 -67 38 -91 38 -155 3z"/>
<path d="M1355 1509 c-22 -12 -50 -30 -62 -42 -27 -24 -29 -22 92 -87 44 -23
152 -82 240 -130 88 -48 205 -111 260 -139 55 -29 138 -74 185 -101 47 -27 93
-49 102 -49 9 -1 18 -5 20 -10 3 -10 169 -100 443 -241 83 -42 231 -121 330
-175 98 -54 215 -115 259 -137 l81 -38 7 27 c11 39 -1 109 -21 126 -21 19 -10
13 -636 349 -291 157 -690 371 -886 477 -196 105 -361 191 -365 191 -5 0 -27
-9 -49 -21z"/>
<path d="M0 991 l0 -81 713 2 c432 2 711 7 710 12 0 5 -57 38 -125 72 l-123
62 -587 7 -588 7 0 -81z"/>
<path d="M0 698 l0 -74 638 -2 c350 -1 774 -4 942 -7 168 -3 328 -2 355 2 l50
9 -96 50 c-53 28 -111 56 -128 62 -20 7 -260 13 -709 17 -372 3 -761 8 -864
11 l-188 5 0 -73z"/>
<path d="M0 413 l0 -70 332 -6 c535 -11 2208 -9 2208 3 0 6 -7 10 -15 10 -9 0
-61 23 -118 52 l-102 52 -425 7 c-234 4 -752 10 -1152 14 l-728 7 0 -69z"/>
</g>
</svg>
